<svg xmlns="http://www.w3.org/2000/svg" version="1.1" width="1920px" height="1080px" style="shape-rendering:geometricPrecision; text-rendering:geometricPrecision; image-rendering:optimizeQuality; fill-rule:evenodd; clip-rule:evenodd" xmlns:xlink="http://www.w3.org/1999/xlink">
<g></g>
<g><path style="opacity: 1;" fill="#010101" d="M 929.5,255.5 C 931.967,255.245 933.967,254.245 935.5,252.5C 955.785,244.342 976.118,244.508 996.5,253C 1015.78,263.389 1025.45,279.556 1025.5,301.5C 1023.68,342.906 1002.35,367.739 961.5,376C 928.215,381.616 905.048,369.116 892,338.5C 884.991,301.861 897.491,274.194 929.5,255.5 Z" data-index="1"></path></g>
<g><path style="opacity:1" fill="#575757" d="M 935.5,252.5 C 933.967,254.245 931.967,255.245 929.5,255.5C 931.033,253.755 933.033,252.755 935.5,252.5 Z" data-index="2"></path></g>
<g><path style="opacity:1" fill="#010101" d="M 452.5,290.5 C 452.973,291.906 453.973,292.573 455.5,292.5C 516.816,328.663 556.816,381.163 575.5,450C 533.168,450.5 490.835,450.667 448.5,450.5C 447.908,447.309 446.741,444.309 445,441.5C 425.406,407.904 396.906,385.071 359.5,373C 305.001,357.756 253.668,364.756 205.5,394C 149.739,434.856 124.572,490.023 130,559.5C 133.877,619.95 161.044,666.45 211.5,699C 264.576,726.896 319.91,732.23 377.5,715C 407.303,705.02 431.636,687.52 450.5,662.5C 457.033,652.573 462.033,641.907 465.5,630.5C 394.17,629.5 322.836,629.167 251.5,629.5C 251.343,628.127 251.51,626.793 252,625.5C 268.119,593.575 283.952,561.575 299.5,529.5C 395.904,529.169 492.237,529.503 588.5,530.5C 598.171,621.313 570.837,698.48 506.5,762C 468.764,795.201 425.097,816.701 375.5,826.5C 372.572,826.565 369.905,827.232 367.5,828.5C 306.626,837.369 247.293,831.535 189.5,811C 88.7628,767.917 30.5961,692.084 15,583.5C 5.43429,505.098 23.101,433.765 68,369.5C 112.719,311.882 170.885,275.715 242.5,261C 307.393,249.723 370.393,256.056 431.5,280C 438.522,283.511 445.522,287.011 452.5,290.5 Z" data-index="3"></path></g>
<g><path style="opacity: 1;" fill="#010101" d="M 731.5,763.5 C 730.383,767.295 729.717,771.295 729.5,775.5C 727.335,791.71 724.669,807.71 721.5,823.5C 684.167,823.5 646.833,823.5 609.5,823.5C 609.5,822.167 609.5,820.833 609.5,819.5C 638.828,634.897 668.161,450.23 697.5,265.5C 735.167,264.167 772.833,264.167 810.5,265.5C 783.68,431.379 757.347,597.379 731.5,763.5 Z" data-index="4"></path></g>
<g><path style="opacity: 1;" fill="#000000" d="M 1457.5,821.5 C 1416.18,823.494 1374.51,824.161 1332.5,823.5C 1327.1,812.138 1321.6,800.805 1316,789.5C 1313.25,785.049 1310.42,780.716 1307.5,776.5C 1273.59,815.543 1230.59,834.377 1178.5,833C 1170.81,831.914 1163.14,830.747 1155.5,829.5C 1153.49,828.076 1151.15,827.41 1148.5,827.5C 1089.3,808.952 1052.3,769.285 1037.5,708.5C 1037.43,705.572 1036.77,702.905 1035.5,700.5C 1032.84,679.598 1031.84,658.598 1032.5,637.5C 1034.21,633.119 1034.88,628.453 1034.5,623.5C 1035.93,612.377 1037.93,601.377 1040.5,590.5C 1042.28,587.495 1043.28,584.162 1043.5,580.5C 1065.94,506.896 1113.94,458.729 1187.5,436C 1221.52,427.427 1255.52,427.427 1289.5,436C 1314.96,443.625 1335.63,458.125 1351.5,479.5C 1363.16,407.848 1374.5,336.181 1385.5,264.5C 1423.17,264.5 1460.83,264.5 1498.5,264.5C 1475.79,415.652 1453.12,566.819 1430.5,718C 1430.59,721.888 1431.09,725.721 1432,729.5C 1440.85,760.209 1449.35,790.876 1457.5,821.5 Z" data-index="5"></path></g>
<g><path style="opacity:1" fill="#767676" d="M 452.5,290.5 C 454.027,290.427 455.027,291.094 455.5,292.5C 453.973,292.573 452.973,291.906 452.5,290.5 Z" data-index="6"></path></g>
<g><path style="opacity:1" fill="#010101" d="M 1695.5,429.5 C 1774.12,425.773 1834.95,456.44 1878,521.5C 1894.33,551.348 1903.5,583.348 1905.5,617.5C 1905.5,634.167 1905.5,650.833 1905.5,667.5C 1809,667.167 1712.67,667.501 1616.5,668.5C 1625.25,707.088 1648.92,730.922 1687.5,740C 1709.02,742.661 1730.36,741.661 1751.5,737C 1760.04,734.395 1768.04,730.729 1775.5,726C 1781.39,720.616 1786.72,714.783 1791.5,708.5C 1825.49,707.5 1859.49,707.167 1893.5,707.5C 1881.92,751.236 1856.59,784.403 1817.5,807C 1803.9,814.051 1789.9,819.885 1775.5,824.5C 1772.5,824.294 1769.84,824.96 1767.5,826.5C 1749.36,830.21 1731.02,832.544 1712.5,833.5C 1698.8,832.406 1685.13,831.073 1671.5,829.5C 1669.09,828.232 1666.43,827.565 1663.5,827.5C 1600.37,814.198 1555.54,778.198 1529,719.5C 1524.26,708.106 1520.42,696.44 1517.5,684.5C 1517.43,681.572 1516.77,678.905 1515.5,676.5C 1515.28,672.295 1514.62,668.295 1513.5,664.5C 1513.3,657.974 1512.64,651.641 1511.5,645.5C 1507.84,585.556 1525.68,533.223 1565,488.5C 1596.54,456.312 1634.71,437.312 1679.5,431.5C 1685.07,431.624 1690.4,430.957 1695.5,429.5 Z" data-index="7"></path></g>
<g><path style="opacity:1" fill="#474747" d="M 1695.5,429.5 C 1690.4,430.957 1685.07,431.624 1679.5,431.5C 1684.62,430.194 1689.95,429.527 1695.5,429.5 Z" data-index="8"></path></g>
<g><path style="opacity: 1;" fill="#010101" d="M 881.5,438.5 C 919.167,438.5 956.833,438.5 994.5,438.5C 973.944,566.829 953.944,695.162 934.5,823.5C 896.833,823.5 859.167,823.5 821.5,823.5C 840.987,695.068 860.987,566.735 881.5,438.5 Z" data-index="9"></path></g>
<g><path style="opacity:1" fill="#fdfdfd" d="M 1693.5,521.5 C 1731.31,517.703 1762.81,529.703 1788,557.5C 1795.86,567.896 1800.69,579.562 1802.5,592.5C 1740.17,592.5 1677.83,592.5 1615.5,592.5C 1622.77,563.062 1640.11,541.896 1667.5,529C 1676.08,525.746 1684.75,523.246 1693.5,521.5 Z" data-index="10"></path></g>
<g><path style="opacity:1" fill="#141414" d="M 299.5,529.5 C 347.499,528.833 395.666,528.5 444,528.5C 492.505,528.5 540.671,529.167 588.5,530.5C 492.237,529.503 395.904,529.169 299.5,529.5 Z" data-index="11"></path></g>
<g><path style="opacity: 1;" fill="#fdfdfd" d="M 1241.5,527.5 C 1271.27,526.25 1295.77,536.917 1315,559.5C 1327.95,577.288 1333.79,597.288 1332.5,619.5C 1331.61,655.393 1318.28,685.559 1292.5,710C 1263.56,732.922 1231.23,739.588 1195.5,730C 1167.52,717.34 1150.69,695.84 1145,665.5C 1139.31,620.884 1152.48,583.051 1184.5,552C 1201.27,538.473 1220.27,530.306 1241.5,527.5 Z" data-index="12"></path></g>
<g><path style="opacity:1" fill="#545454" d="M 1043.5,580.5 C 1043.28,584.162 1042.28,587.495 1040.5,590.5C 1040.72,586.838 1041.72,583.505 1043.5,580.5 Z" data-index="13"></path></g>
<g><path style="opacity:1" fill="#464646" d="M 1034.5,623.5 C 1034.88,628.453 1034.21,633.119 1032.5,637.5C 1032.69,632.63 1033.36,627.964 1034.5,623.5 Z" data-index="14"></path></g>
<g><path style="opacity:1" fill="#b8b8b8" d="M 1511.5,645.5 C 1512.64,651.641 1513.3,657.974 1513.5,664.5C 1511.91,658.406 1511.24,652.072 1511.5,645.5 Z" data-index="15"></path></g>
<g><path style="opacity:1" fill="#7d7d7d" d="M 1905.5,617.5 C 1906.5,634.325 1906.83,651.325 1906.5,668.5C 1809.83,668.5 1713.17,668.5 1616.5,668.5C 1712.67,667.501 1809,667.167 1905.5,667.5C 1905.5,650.833 1905.5,634.167 1905.5,617.5 Z" data-index="16"></path></g>
<g><path style="opacity:1" fill="#939393" d="M 1515.5,676.5 C 1516.77,678.905 1517.43,681.572 1517.5,684.5C 1515.96,682.162 1515.29,679.495 1515.5,676.5 Z" data-index="17"></path></g>
<g><path style="opacity:1" fill="#939393" d="M 1035.5,700.5 C 1036.77,702.905 1037.43,705.572 1037.5,708.5C 1035.96,706.162 1035.29,703.495 1035.5,700.5 Z" data-index="18"></path></g>
<g><path style="opacity:1" fill="#888888" d="M 731.5,763.5 C 731.802,767.79 731.136,771.79 729.5,775.5C 729.717,771.295 730.383,767.295 731.5,763.5 Z" data-index="19"></path></g>
<g><path style="opacity:1" fill="#808080" d="M 609.5,819.5 C 609.5,820.833 609.5,822.167 609.5,823.5C 646.833,823.5 684.167,823.5 721.5,823.5C 684.004,824.498 646.337,824.832 608.5,824.5C 608.216,822.585 608.549,820.919 609.5,819.5 Z" data-index="20"></path></g>
<g><path style="opacity:1" fill="#808080" d="M 1457.5,821.5 C 1458.4,822.209 1458.74,823.209 1458.5,824.5C 1416.33,824.832 1374.33,824.499 1332.5,823.5C 1374.51,824.161 1416.18,823.494 1457.5,821.5 Z" data-index="21"></path></g>
<g><path style="opacity:1" fill="#9d9d9d" d="M 1775.5,824.5 C 1773.09,825.768 1770.43,826.435 1767.5,826.5C 1769.84,824.96 1772.5,824.294 1775.5,824.5 Z" data-index="22"></path></g>
<g><path style="opacity:1" fill="#919191" d="M 375.5,826.5 C 373.162,828.04 370.495,828.706 367.5,828.5C 369.905,827.232 372.572,826.565 375.5,826.5 Z" data-index="23"></path></g>
<g><path style="opacity:1" fill="#5a5a5a" d="M 1148.5,827.5 C 1151.15,827.41 1153.49,828.076 1155.5,829.5C 1152.85,829.59 1150.51,828.924 1148.5,827.5 Z" data-index="24"></path></g>
<g><path style="opacity:1" fill="#707070" d="M 1663.5,827.5 C 1666.43,827.565 1669.09,828.232 1671.5,829.5C 1668.5,829.706 1665.84,829.04 1663.5,827.5 Z" data-index="25"></path></g>
</svg>